<svg id="Layer_1" data-name="Layer 1" xmlns="http://www.w3.org/2000/svg" viewBox="0 0 500 160"><defs><style>.cls-1{fill:#383838;}</style></defs><title>stacked_secondary_black</title><path class="cls-1" d="M88.23,100.88a42.24,42.24,0,0,0,42.15,41.93h11.74V.69H0L0,12.95A42.23,42.23,0,0,0,42.19,55h2.14v2A42.28,42.28,0,0,0,86.27,98.92h2Zm43.51,31.61-2,0a32,32,0,0,1-31.16-31.54l0-2h33.18ZM42.19,44.69A31.87,31.87,0,0,1,10.38,13V11H131.74V44.69ZM54.68,57l0-2h77.08V88.58H86.48A31.89,31.89,0,0,1,54.68,57Z"/><path class="cls-1" d="M93.66,132.46H10.35V49.58A49.07,49.07,0,0,1,0,37V142.8H106.19A49.09,49.09,0,0,1,93.66,132.46Z"/><path class="cls-1" d="M162.12,32.14c0-19.59,10.69-31.55,27.14-31.55s27.14,12,27.14,31.55c0,19.42-10.69,31.55-27.14,31.55S162.12,51.31,162.12,32.14Zm47.42,0c0-15.95-7.55-26-20.27-26s-20.27,10-20.27,26c0,15.61,7.63,26,20.27,26S209.54,48.09,209.54,32.14Z"/><path class="cls-1" d="M222.78,46.73V19.84h5.85v26.3c0,8.31,3.9,12,9.67,12,7.72,0,12.38-6.62,12.38-15.18V19.84h5.94V62.25H251V53.52a14.54,14.54,0,0,1-13.74,9.75C226.68,63.27,222.78,56.82,222.78,46.73Z"/><path class="cls-1" d="M262.22,19.84H270V8.64L276,6.1V19.84H286.9v4.92H276V50.21c0,5,2.21,7.21,6.62,7.21a17.15,17.15,0,0,0,4.33-.59v5.43a20,20,0,0,1-5.85.76c-8.23,0-11-5-11-12.55V24.76h-7.8Z"/><path class="cls-1" d="M299.47,53.77l-1.1,8.48h-4.5V.76h5.85V28.49A14.7,14.7,0,0,1,314,18.82c10.43,0,17.22,9.08,17.22,22.22,0,13.32-7,22.22-17.64,22.22A14.69,14.69,0,0,1,299.47,53.77ZM324.91,41c0-10.26-4.58-17-12.72-17-7.72,0-12.55,6.36-12.55,16.12v2C299.64,51.65,304.39,58,312,58,320.08,58,324.91,51.39,324.91,41Z"/><path class="cls-1" d="M336.74,41c0-13.83,7.72-22.22,19.51-22.22s19.42,8.4,19.42,22.22-7.72,22.22-19.42,22.22S336.74,54.87,336.74,41Zm32.66,0c0-11-5-17-13.15-17S343,30,343,41s5,17.05,13.23,17.05S369.39,52.07,369.39,41Z"/><path class="cls-1" d="M381.66,46.73V19.84h5.85v26.3c0,8.31,3.9,12,9.67,12,7.72,0,12.38-6.62,12.38-15.18V19.84h5.94V62.25h-5.6V53.52a14.54,14.54,0,0,1-13.74,9.75C385.56,63.27,381.66,56.82,381.66,46.73Z"/><path class="cls-1" d="M422.16,19.84h5.6v9.33c2.54-7,7.46-10.52,14.5-10.52,9.5,0,14.42,5.94,14.42,17.39V62.25h-5.94V36.38c0-8.23-3.56-12.47-10.26-12.47-7.63,0-12.47,6.11-12.47,16V62.25h-5.85Z"/><path class="cls-1" d="M462.59,41c0-13.06,7.38-22.22,18.15-22.22,6.11,0,10.77,2.8,13.32,8.74V.76H500v61.5h-5.6v-9c-2.46,6.28-7.55,10-14.33,10C469.55,63.27,462.59,54.28,462.59,41Zm31.55.93V40.2c0-9.67-4.66-16.12-12.55-16.12s-12.73,6.36-12.73,17,4.75,17,12.64,17S494.15,51.39,494.15,42Z"/><path class="cls-1" d="M203.27,133.91v8.57h-39.7V81h39.11v9.84H174.51v15.92h26.72v8.48H174.51v18.69Z"/><path class="cls-1" d="M210.73,100.07h9.67v8.23C223.28,102,228,99,234.48,99c9.25,0,14.08,5.85,14.08,17.22v26.29H238.3V117.2c0-6.7-2.55-10-7.89-10-5.94,0-9.5,4.75-9.5,12.81v22.48H210.73Z"/><path class="cls-1" d="M300.09,82.42h11V93h-11Zm.51,17.64h10.18v42.41H300.6Z"/><path class="cls-1" d="M317.26,100.07h9.67v8.23C329.81,102,334.48,99,341,99c9.25,0,14.08,5.85,14.08,17.22v26.29H344.82V117.2c0-6.7-2.55-10-7.89-10-5.94,0-9.5,4.75-9.5,12.81v22.48H317.26Z"/><path class="cls-1" d="M399.36,123.82H369.59c.09,7.12,4.58,11.71,11.28,11.71,4.83,0,8.4-2.46,10.35-7L399,132c-3.14,7.38-9.84,11.45-18.49,11.45-13,0-20.78-7.89-20.78-21.8S367.38,99,380,99c12.3,0,19.34,7.13,19.34,20.1Zm-10-7.38c0-7-3.48-10.6-9.5-10.6-6.45,0-10.09,4.24-10.26,11.28h19.77Z"/><path class="cls-1" d="M255.54,145.29h10.09c.84,5,4.12,6.89,9.25,6.89,6.3,0,9.25-3.45,9.25-10.93V134c-2.1,5.46-6.39,8.32-12.36,8.32-10.34,0-17.57-9-17.57-22,0-12.78,7.4-21.35,17.9-21.35,5.72,0,10.26,2.77,12.44,7.57l1.29-6.47h8.29V141c0,12.44-6.72,18.41-19.59,18.41C263,159.41,256.55,154.87,255.54,145.29Zm28.75-23.37V119c0-7.4-4-12.27-9.67-12.27-6.14,0-9.92,5-9.92,13.79S268.57,135,274.54,135C280.34,135,284.29,129.74,284.29,121.92Z"/></svg>